<svg width="378" height="195" viewBox="0 0 378 195" fill="none" xmlns="http://www.w3.org/2000/svg">
<path d="M177.825 6.85907L207.007 11.5138M207.007 11.5138L235.809 17.9262L263.379 25.9011L288.931 35.1834L311.77 45.4856L315.221 47.4278L331.333 56.4876L335.478 66.2256L335.608 78.5243L331.653 91.6692L324.156 103.789L314.195 113.153L303.199 118.464L285.774 109.458L265.576 100.973L243.1 93.2588L218.937 86.5479L193.759 81.0415L168.283 76.9022L143.23 74.2439M207.007 11.5138L205.591 19.532L203.394 31.4401L200.73 45.5724L197.98 59.8729L195.544 72.2746L193.764 81.0361L192.875 85.0126M207.007 11.5138L207.468 8.41606M180.202 4.08143L153.38 1.50994L127.757 0.761273L104.034 1.83001L97.9087 2.63836L82.8161 4.63478L73.8376 7.37444L54.5135 12.0509L38.8297 18.2463L27.0301 25.7383L18.0842 33.7512L12.9575 44.9756L4.93924 53.6937L1.14711 63.2419L0.723957 75.5296L5.10741 87.3075L13.7279 96.9424L25.4026 103.094L38.5096 104.912L51.2422 102.161L54.5407 95.9605L60.7469 90.4052M60.7469 90.4052L66.0038 87.6547L67.8538 86.6836L68.456 86.3689L68.8303 86.1736L69.5627 85.7885L69.8285 85.6474L72.4325 84.8065L72.5628 84.7631L74.5755 84.1175L75.5031 83.8192L76.6478 83.4502L77.9607 83.0271L78.9915 82.6962L81.6606 81.8336L88.3226 80.5641L96.0425 79.0939L104.983 78.1771L106.741 78.0848L125.105 77.7648L146.908 78.8064M60.7469 90.4052L48.5351 92.1521M305.591 130.524L305.705 130.719L306.383 133.502L308.51 142.187L315.888 152.506L326.738 159.732L339.585 162.846M339.585 162.846L352.654 161.409L364.144 155.615L372.466 146.278L374.381 140.782L376.502 134.701L376.915 124.529L373.106 113.581L364.936 102.08L352.393 90.2967L335.608 78.5297L314.857 67.1045L290.591 56.3628L263.411 46.6411L234.062 38.2485L203.394 31.4563L172.33 26.4761L141.808 23.4489L112.725 22.4453L85.8976 23.4489L62.0273 26.3785M339.585 162.846L336.438 170.159L330.145 176.599M339.585 162.846L339.368 154.785L335.641 146.121L328.333 137.039L317.472 127.746L305.857 127.518L300.454 124.035L298.924 123.053L292.718 119.055L284.168 114.921M161.008 183.57L140.539 178.921L138.363 178.595M173.643 121.724L174.267 121.843L192.506 125.316L211.412 127.936L230.063 129.542M276.741 110.863L282.171 113.652L292.718 119.066L303.199 118.485L317.467 127.762L329.516 123.292L340.312 114.693L348.314 103.154L352.383 90.3129L351.976 77.9872L347.196 67.8857L338.776 61.3593L334.48 58.2779L331.029 55.8041L323.82 50.6286M95.0009 93.9912L97.0407 95.1738L101.82 97.7833L110.213 102.145L124.725 108.416L140.403 114.069L156.971 119.017L174.147 123.189M360.786 114.623L348.308 103.154L331.643 91.6909L311.065 80.5478L287.016 70.0557L260.102 60.5347L231.056 52.294L200.719 45.5941L169.997 40.6464L139.812 37.5921L111.054 36.5017L84.525 37.3642L60.926 40.0985L40.799 44.5633L24.54 50.5743L12.3933 57.9036M296.255 122.717L297.47 123.498L298.154 123.672L300.09 124.643L305.852 127.534L307.398 128.842L315.915 136.035L328.322 137.061L341.098 133.421L352.458 125.581L360.791 114.628M40.9454 119.733L53.1627 115.87L63.3998 108.21L70.2462 97.8267L68.3258 91.3492L69.5356 85.8101M75.1993 137.332L83.7004 128.527L89.5649 117.672L91.9791 106.29L90.6337 95.9767L85.762 88.1321M85.762 88.1321L78.9698 82.7124M85.762 88.1321L94.9954 93.9857L97.0353 95.1684L104.603 98.9822L109.757 101.212L120.298 105.774L124.258 107.201L137.235 111.883L140.067 112.729L155.111 117.227L156.841 117.644L173.632 121.724L174.153 123.183L191.654 126.514L209.193 128.95L226.483 130.442L243.23 130.963L259.153 130.486L269.374 129.46L274.148 128.842L277.256 128.386M68.4343 86.3852L67.4252 87.2803L65.0328 89.407L61.8374 95.2606L51.2259 102.172L50.8028 108.856L53.1573 115.865L58.1429 123.042L65.5644 130.241L75.2048 137.327M12.4041 57.8819L16.5272 70.6905L24.7679 81.6003L35.9598 89.0923L48.5351 92.1521M48.5351 92.1521L58.3002 86.9765L68.8683 85.7613M48.5351 92.1521L41.9274 98.1847L38.5096 104.906L38.2275 112.138L40.9563 119.711M360.14 164.072L364.144 155.609L364.323 146.251L360.471 136.166L352.469 125.56L340.323 114.677L324.161 103.794L304.262 93.2099L281.059 83.2332L255.127 74.1679L227.166 66.3016L197.98 59.8837L168.435 55.1096L139.405 52.115L111.732 50.9649L86.1905 51.6593L63.4432 54.1277L44.016 58.2454L28.2942 63.8386L16.5218 70.6959L8.79646 78.5948M297.264 123.542L287.347 126.487M287.347 126.487L277.251 128.364L274.142 128.82L265.364 129.563L248.145 130.084L230.058 129.531L226.477 130.426L222.957 135.574L219.995 144.341L218.014 155.533L217.309 167.566L217.982 178.72L219.924 187.422L222.848 192.483L242.666 193.454L261.54 193.362L279.139 192.18L295.132 189.901L309.177 186.527L319.219 186.928M287.347 126.487L280.066 132.01L275.135 141.119L273.269 152.587L274.755 164.826L279.394 176.116L286.528 184.872L295.143 189.89L304.029 190.53M299.569 125.495L294.334 134.24L292.484 145.915L294.785 158.132L300.931 169.194L310.078 177.559L320.944 182.078L332.017 182.149L342.069 176.257L352.567 171.505M153.385 1.49909L149.121 4.09228L145.069 11.7308L141.808 23.4381L139.823 37.5758L139.405 52.1096L140.609 64.929L143.241 74.2385M238.711 136.084L235.223 144.873L233.281 156.114L233.172 168.228L234.913 179.485L238.244 188.295L242.677 193.46L247.586 194.333M62.0273 26.3622L60.9314 40.0768L63.4432 54.1223L69.1992 66.4969L77.3531 75.4645L86.733 79.8317L96.0316 79.0939M9.25217 106.208L17.3735 114.514L24.2362 123.634L34.6686 127.654L46.5224 127.453L58.1538 123.026L67.9514 114.981L74.5483 104.44L77.0547 92.879L75.4923 83.8245M238.711 136.079L253.662 135.661L267.54 134.299L280.072 132.005L290.998 128.793L299.146 125.109M349.062 169.307L352.665 161.409L352.648 152.68L348.829 143.278L341.12 133.404L329.532 123.281L314.206 113.163L295.414 103.328L273.556 94.0508L249.176 85.6203L222.929 78.291L195.555 72.2909L167.849 67.7989L140.615 64.9399L114.64 63.7844L90.6337 64.3269L69.2101 66.5132L50.8733 70.2293L35.9815 75.3235L24.7733 81.6111L17.3572 88.8916L13.7333 96.9478L13.7984 105.563M61.6041 150.206L69.145 152.294L77.9607 150.206L86.8361 144.178L94.5234 135.016L99.9268 124.003L102.287 112.697L101.299 102.688L97.1492 95.342M273.958 128.994L267.54 134.321L263.059 143.278L261.171 154.66L262.164 166.877L265.901 178.205L271.847 187.042L279.15 192.185L286.783 192.982M297.757 123.954L290.998 128.804L285.654 138.102L283.799 149.669L285.725 161.913L291.177 173.116L299.385 181.715M274.028 109.713L276.556 110.879L285.784 109.463L295.408 103.322L304.268 93.2099L311.081 80.5316L314.863 67.1045L315.091 54.8547L311.776 45.491L305.45 40.2612M299.38 181.715L310.1 177.559L318.4 172.465L324.02 166.492L326.733 159.732L326.358 152.3L315.4 145.594L311.977 138.216M127.763 0.755859L121.741 3.27851L116.473 10.8248L112.725 22.429L111.059 36.48L111.732 50.9541L114.629 63.7626L119.316 73.11L125.094 77.7593M34.1044 132.721L43.7176 136.063L54.7143 135.2L65.5807 130.22L74.7925 121.789L81.0584 111.091L83.516 99.6224L81.8613 88.9784L77.9553 83.0162M258.285 103.116L265.581 100.962L273.545 94.0345L281.059 83.2169L287.032 70.0232L290.591 56.3466L291.242 44.1619L288.931 35.1779L284.037 30.5721M307.962 135.618L308.499 142.171L306.389 148.177L313.523 158.799L324.02 166.481L336.438 170.148L349.057 169.297M69.8231 85.6474L69.579 85.6745L68.8412 85.962L68.342 91.322L61.3329 101.559L63.4107 108.183L67.9514 114.975L74.787 121.795L83.7167 128.505L94.5126 134.988L106.931 141.135L120.721 146.848L135.624 152.029L151.367 156.602L167.681 160.497M167.681 160.497L184.292 163.654L200.925 166.02L217.309 167.55L233.161 168.212L248.199 167.984L262.153 166.85L274.744 164.815L285.708 161.891L294.79 158.11L301.75 153.515L306.378 148.171L303.562 136.079L304.561 129.661M167.681 160.497L165.049 171.13L162.717 179.176L161.002 183.543M167.681 160.497L170.236 148.779L172.346 137.658L173.713 128.712L174.158 123.162M78.5629 158.257L84.8994 159.781L92.4348 157.139L100.138 150.629L106.92 141.124L111.813 129.959L114.124 118.719L113.549 108.991L110.207 102.102L104.603 98.9443M265.359 129.536L259.142 130.442L253.646 135.645L249.648 144.499L247.733 155.804L248.189 167.978L250.955 179.29L255.626 188.143L261.529 193.335L267.827 194.209M305.467 130.421L303.557 136.068L299.146 141.336L301.745 153.504L308.461 164.376L318.378 172.438L330.123 176.572M305.548 130.486L305.711 130.844L307.94 135.601L308.347 136.149L309.872 138.195L315.373 145.573L315.856 152.479L313.496 158.783L308.45 164.376L300.92 169.166L291.139 173.089L279.367 176.1L265.874 178.172L250.95 179.29L234.881 179.463L217.966 178.698L200.491 177.027L182.751 174.488L165.033 171.125L147.629 166.986L130.823 162.141L114.895 156.662L100.133 150.629L86.809 144.141L75.1993 137.294L65.2606 142.811L55.2839 144.303L46.6418 141.612L39.2799 136.399L34.0773 132.715L24.2091 123.623L16.6086 115.968L9.22504 106.198L5.29729 96.5681L3.32799 91.4143L0.99521 85.3219L0.691406 75.5079L4.44013 66.2745L12.3716 57.8656L12.9304 44.9539L25.2073 37.3317L41.6453 31.0549L62.0001 26.3513L66.5301 14.9207L73.8105 7.35275L96.3897 4.38523L121.703 3.26767L149.089 4.08143L177.787 6.8482L180.169 4.06516L207.425 8.41063L234.322 14.4053L235.798 14.8339L260.086 21.8702L262.929 22.9064L283.994 30.5775L288.188 32.4708L305.401 40.2504L310.989 43.3969L323.782 50.6014L331.295 56.4768L335.364 59.3955L347.164 67.8532L351.753 72.2692L359.066 79.3001L364.28 89.7379L372.325 101.255L373.057 113.57L368.907 125.771L360.423 136.155L348.769 143.262L335.592 146.104L322.724 144.32L315.877 135.992L307.588 131.598L305.624 130.589L305.537 130.507L305.521 130.496L305.439 130.426L304.528 129.661L302.369 127.844L302.136 127.643L301.365 126.997L299.537 125.462L299.092 125.088L297.703 123.921L297.432 123.455L296.217 122.674L290.716 119.136L284.119 114.894L276.497 110.852L273.969 109.686L258.23 103.105L237.734 96.0961L215.736 89.9983L192.826 84.991L169.644 81.2205L146.843 78.7847L143.181 74.2113L119.256 73.0938L97.1112 73.5169L77.2988 75.4428L60.2858 78.7684L46.4085 83.3634L35.9001 89.0652L28.8747 95.6946L25.3429 103.056L25.229 110.961L28.3864 119.212L34.6144 127.627L43.6634 136.041L55.2514 144.292L69.0853 152.246L84.856 159.77L102.243 166.758L120.933 173.105L140.479 178.877L160.075 183.695L160.948 183.527L181.639 187.454L182.214 187.899L194.551 189.679L202.417 190.633L204.397 191.1L213.468 191.99L223.076 192.934L226.277 193.248L230.942 193.476L247.521 194.29L267.784 194.198L286.717 192.939L303.964 190.503L319.165 186.89L331.968 182.116L341.733 177.771L344.511 176.148L352.524 171.472L360.081 164.045L364.008 159.705L368.115 155.164L372.406 146.245L372.743 136.383L368.896 125.755L360.743 114.579L364.876 102.053L364.263 89.7216L351.927 77.9438L335.418 66.2039L315.026 54.8276L291.182 44.151L264.48 34.5107L235.651 26.2103L205.531 19.5158L175.01 14.6386L145.009 11.7145L116.408 10.8085L90.0098 11.9044L66.4975 14.9153L46.4248 19.6948L30.1875 26.0421L18.0299 33.7294L10.0497 42.4964L4.87956 53.6666L4.40758 66.269L8.73679 78.5731L5.04231 87.2803L5.25932 96.5626L13.7279 105.53L17.3084 114.498L28.3755 119.223L40.8858 119.695L46.4573 127.437L54.6492 135.195L65.2172 142.817L77.8902 150.173L92.3805 157.144L108.401 163.622L125.653 169.508L143.837 174.716L162.652 179.17L181.797 182.805L200.969 185.566L219.859 187.4L238.163 188.268L255.572 188.143L271.771 187.009L286.452 184.856L299.304 181.687L309.112 186.499L320.885 182.051L330.064 176.577L342.004 176.23L348.976 169.286L360.059 164.051M237.707 96.1015L243.024 93.2425L249.084 85.5986L255.04 74.1517L260.032 60.5022L263.325 46.6194L264.453 34.5161L263.292 25.8902L260.048 21.8648M97.2468 165.765L102.298 166.785L108.466 163.633L114.911 156.678L120.721 146.853L125.067 135.536L127.323 124.344L127.193 114.861M127.193 114.861L124.725 108.389L120.303 105.753M127.193 114.861L113.555 109.002L101.289 102.666L90.6445 95.955L81.8559 88.9838L76.6316 83.4502M127.193 114.861L141.944 120.151L157.536 124.789L173.708 128.706L190.184 131.842L206.692 134.142L222.957 135.563L238.7 136.073L243.225 130.93L248.145 130.068M177.825 6.85364L175.069 14.6495L172.33 26.4544L170.002 40.6193L168.429 55.0934L167.832 67.7772L168.283 76.8859L169.693 81.2314M117.282 172.557L120.982 173.121L125.712 169.514L130.833 162.152L135.618 152.029L139.383 140.571L141.591 129.417L141.939 120.151L140.403 114.037L137.235 111.856M215.774 90.0146L218.931 86.5371L222.908 78.2747L227.15 66.2907L231.056 52.2669L234.051 38.2323L235.706 26.2212L235.803 17.9208L234.36 14.4053M160.129 183.716L174.326 186.413L181.688 187.644L202.417 190.471L222.848 192.472L226.331 193.275M46.6689 141.629L52.1808 144.786L61.6041 150.184L67.0346 152.772L78.5792 158.273L83.5648 160.275L97.2523 165.77L101.484 167.208L117.292 172.573L120.526 173.496L130.069 176.219L138.369 178.584L140.669 178.752L143.908 174.738L147.651 167.013L151.373 156.618L154.541 145.025L156.7 133.893L157.547 124.806L156.988 119.001L155.127 117.216M211.417 127.925L209.199 128.934L206.703 134.153L204.273 142.936L202.255 154.09L200.942 166.031L200.524 177.049L201.05 185.583L202.488 190.666L204.468 191.133M72.5682 84.7685L72.8177 86.1356L77.071 92.879L83.5322 99.6332L92.0116 106.273L102.298 112.681L114.157 118.74L127.351 124.35L141.624 129.428L156.716 133.887L172.368 137.663L188.312 140.696L204.283 142.931L220.016 144.33L235.239 144.862L249.68 144.509L263.075 143.256L275.157 141.108L285.67 138.086L294.372 134.218L301.034 129.558L302.206 127.648M72.4543 84.7957L72.834 86.1194L70.2896 97.7887L74.5809 104.424L81.0855 111.08L89.6138 117.634L99.9485 123.965L111.862 129.959L125.105 135.52L139.427 140.56L154.568 144.998L170.268 148.768L186.261 151.806L202.276 154.068L218.047 155.506L233.302 156.092L247.771 155.804L261.187 154.627L273.29 152.571L283.815 149.647L292.522 145.887L299.184 141.341L301.029 129.553L302.434 127.844M192.527 125.278L191.681 126.476L190.211 131.831L188.312 140.679L186.251 151.812L184.319 163.649L182.795 174.494L181.889 182.81L181.715 187.639L182.301 187.915M82.8216 4.62394L74.5429 6.63121L68.7869 8.02545L64.6042 9.03994L54.5135 12.04L46.4844 19.7111L41.6724 31.0657L40.799 44.5416L44.016 58.2399L50.857 70.2131L60.3346 78.7901L71.098 82.8209L77.5809 81.5786L86.733 79.8263L97.5127 78.8064L104.869 78.112M13.7875 105.541L25.2778 110.982L38.2166 112.133L50.8082 108.834L61.322 101.559L61.8374 95.2444L66.6386 88.3871L67.4252 87.2641M8.78561 78.5894L17.3355 88.8807L28.9181 95.7218L41.9111 98.1847L54.5244 95.9605L62.1737 91.181L64.2136 89.9061L65.0328 89.3961M305.662 130.643L307.745 133.149L311.96 138.222L322.756 144.341L326.342 152.305L339.352 154.79L352.621 152.68L364.307 146.256L372.786 136.415L376.898 124.534L376.117 112.257L372.352 101.272L366.889 90.53L364.15 86.5914L359.088 79.3163M104.039 1.81917L96.4276 4.39608L90.0749 11.9207L85.903 23.4327L84.5413 37.3371L86.2014 51.6484L90.6337 64.3051L97.1763 73.5332L104.983 78.1716L106.741 78.0794M38.8405 18.2354L30.258 26.0584L25.2507 37.3425L24.5563 50.5472L28.3104 63.8277L35.9815 75.3072L46.479 83.3851L58.3111 86.9765L69.0907 83.4828L70.1486 83.141L71.1197 82.8264L78.3133 82.1536L81.6714 81.839" stroke="white" stroke-width="1.08501" stroke-linecap="round" stroke-linejoin="round"/>
</svg>
