<?xml version="1.0" standalone="no"?>
<!DOCTYPE svg PUBLIC "-//W3C//DTD SVG 20010904//EN"
 "http://www.w3.org/TR/2001/REC-SVG-20010904/DTD/svg10.dtd">
<svg version="1.0" xmlns="http://www.w3.org/2000/svg"
 width="417.000000pt" height="152.000000pt" viewBox="0 0 417.000000 152.000000"
 preserveAspectRatio="xMidYMid meet">

<g transform="translate(0.000000,152.000000) scale(0.100000,-0.100000)"
fill="#000000" stroke="none">
<path d="M584 1151 c-2 -2 -4 -168 -4 -368 l0 -364 73 3 72 3 1 105 c3 228 2
222 22 218 20 -4 29 -71 31 -230 l1 -98 75 0 75 0 -6 153 c-5 121 -10 161 -26
194 l-19 42 22 30 c20 27 22 42 22 131 -1 158 -22 177 -212 182 -67 2 -124 1
-127 -1z m196 -150 c24 -46 5 -121 -30 -121 -16 0 -20 7 -21 38 -1 46 2 85 8
95 8 14 32 7 43 -12z"/>
<path d="M940 788 l0 -368 225 0 225 0 2 168 3 167 61 -3 c71 -4 72 -2 70 78
l-1 55 -67 3 -68 3 0 64 0 65 75 0 75 0 0 -300 0 -300 296 0 297 0 -7 31 c-3
17 -6 49 -6 70 l0 39 -70 0 -70 0 0 90 0 90 65 0 65 0 0 69 0 69 -62 0 -63 -1
-3 71 -3 71 72 3 72 3 3 61 c3 52 1 62 -14 65 -9 2 -77 3 -149 1 l-133 -3 0
-305 0 -304 -72 0 -73 0 -1 67 c0 38 -1 175 -2 306 l-2 237 -215 0 c-118 0
-215 -3 -216 -7 0 -5 -1 -137 -2 -295 l-1 -288 -35 1 c-20 0 -56 4 -81 7 l-45
7 0 82 0 83 68 0 68 0 -3 63 -3 62 -57 5 c-31 3 -59 8 -62 11 -3 3 -8 36 -10
72 l-5 67 74 0 75 0 0 65 c0 36 -3 65 -7 65 -5 0 -70 1 -146 3 l-137 2 0 -367z"/>
<path d="M2683 1152 l-213 -2 0 -32 c0 -30 -1 -31 -19 -14 -31 28 -91 45 -158
46 -55 0 -66 -3 -97 -30 -56 -50 -61 -77 -61 -340 0 -198 3 -241 17 -272 39
-86 180 -115 270 -54 46 30 55 56 62 179 l7 108 -68 -3 -68 -3 -6 -70 c-8 -95
-16 -117 -42 -113 -31 4 -40 75 -34 281 3 142 7 171 21 185 16 16 18 16 37 -7
14 -18 19 -39 19 -88 l0 -64 68 3 67 3 5 75 c5 73 6 75 33 78 l27 3 0 -300 0
-301 75 0 75 0 0 300 0 300 40 0 40 0 0 -300 0 -300 65 0 65 0 0 364 c0 201
-3 366 -7 368 -5 2 -104 2 -220 0z"/>
<path d="M2940 788 l0 -368 65 0 65 0 2 167 3 167 70 1 70 0 0 65 0 65 -67 3
-68 3 0 64 0 65 69 0 c43 0 72 -5 79 -12 6 -7 25 -74 43 -148 27 -112 33 -161
37 -288 l4 -153 67 3 66 3 2 100 c4 129 14 189 70 422 26 106 45 194 42 197
-2 2 -33 6 -69 7 l-65 3 -16 -113 c-9 -62 -19 -114 -22 -117 -2 -2 -14 47 -27
110 l-22 115 -199 3 -199 3 0 -367z"/>
<path d="M3567 576 c-102 -69 -15 -226 96 -175 51 23 63 108 22 157 -33 39
-77 46 -118 18z"/>
</g>
</svg>
